{
	"asset":{
		"generator":"Khronos glTF Blender I/O v4.2.57",
		"version":"2.0"
	},
	"extensionsUsed":[
		"KHR_lights_punctual"
	],
	"extensionsRequired":[
		"KHR_lights_punctual"
	],
	"extensions":{
		"KHR_lights_punctual":{
			"lights":[
				{
					"color":[
						1,
						1,
						1
					],
					"intensity":54.35141306588226,
					"type":"point",
					"name":"Light"
				}
			]
		}
	},
	"scene":0,
	"scenes":[
		{
			"name":"Scene",
			"nodes":[
				0,
				1,
				2,
				3,
				4,
				5,
				6,
				7
			]
		}
	],
	"nodes":[
		{
			"extensions":{
				"KHR_lights_punctual":{
					"light":0
				}
			},
			"name":"Light",
			"rotation":[
				0.16907574236392975,
				0.27217137813568115,
				0.7558803558349609,
				0.570947527885437
			],
			"translation":[
				8.665473937988281,
				-0.9945459365844727,
				5.903861999511719
			]
		},
		{
			"camera":0,
			"name":"Camera",
			"rotation":[
				0.48623329401016235,
				0.4897231459617615,
				0.5135630965232849,
				0.5099033713340759
			],
			"translation":[
				24.358890533447266,
				0.07420921325683594,
				4.958309173583984
			]
		},
		{
			"mesh":0,
			"name":"Room",
			"scale":[
				10,
				10,
				10
			],
			"translation":[
				0,
				0,
				5
			]
		},
		{
			"name":"LookAt",
			"translation":[
				0,
				-0.09999996423721313,
				3.799999952316284
			]
		},
		{
			"mesh":1,
			"name":"Cube",
			"scale":[
				2,
				2,
				2
			],
			"translation":[
				-2,
				-2.5,
				1
			]
		},
		{
			"mesh":2,
			"name":"Sphere",
			"scale":[
				2,
				2,
				2
			],
			"translation":[
				0,
				0,
				6
			]
		},
		{
			"mesh":3,
			"name":"Cone",
			"scale":[
				1.5,
				1.5,
				1.5
			],
			"translation":[
				2.200000047683716,
				2,
				1.5
			]
		},
		{
			"mesh":4,
			"name":"Plane",
			"rotation":[
				0,
				0.7071068286895752,
				0,
				0.7071068286895752
			],
			"scale":[
				3,
				5,
				1
			],
			"translation":[
				7.582635402679443,
				-5,
				1.5509967803955078
			]
		}
	],
	"cameras":[
		{
			"name":"Camera",
			"perspective":{
				"aspectRatio":1.7777777777777777,
				"yfov":0.39959652046304894,
				"zfar":100,
				"znear":0.10000000149011612
			},
			"type":"perspective"
		}
	],
	"materials":[
		{
			"doubleSided":true,
			"name":"Room",
			"pbrMetallicRoughness":{
				"baseColorTexture":{
					"index":0
				},
				"metallicFactor":0
			}
		},
		{
			"doubleSided":true,
			"name":"Red",
			"pbrMetallicRoughness":{
				"baseColorFactor":[
					0.800000011920929,
					0,
					0,
					1
				],
				"metallicFactor":0
			}
		},
		{
			"doubleSided":true,
			"name":"Green",
			"pbrMetallicRoughness":{
				"baseColorFactor":[
					0,
					0.800000011920929,
					0,
					1
				],
				"metallicFactor":0
			}
		},
		{
			"doubleSided":true,
			"name":"Blue",
			"pbrMetallicRoughness":{
				"baseColorFactor":[
					0,
					0,
					0.800000011920929,
					1
				],
				"metallicFactor":0
			}
		},
		{
			"doubleSided":true,
			"name":"White",
			"pbrMetallicRoughness":{
				"baseColorFactor":[
					0.5,
					0.5,
					0.5,
					1
				],
				"metallicFactor":0,
				"roughnessFactor":0.5
			}
		}
	],
	"meshes":[
		{
			"name":"Room",
			"primitives":[
				{
					"attributes":{
						"POSITION":0,
						"NORMAL":1,
						"TEXCOORD_0":2,
						"TANGENT":3
					},
					"indices":4,
					"material":0
				}
			]
		},
		{
			"name":"Cube",
			"primitives":[
				{
					"attributes":{
						"POSITION":5,
						"NORMAL":6,
						"TEXCOORD_0":7,
						"TANGENT":8
					},
					"indices":9,
					"material":1
				}
			]
		},
		{
			"name":"Sphere",
			"primitives":[
				{
					"attributes":{
						"POSITION":10,
						"NORMAL":11,
						"TEXCOORD_0":12,
						"TANGENT":13
					},
					"indices":14,
					"material":2
				}
			]
		},
		{
			"name":"Cone",
			"primitives":[
				{
					"attributes":{
						"POSITION":15,
						"NORMAL":16,
						"TEXCOORD_0":17
					},
					"indices":18,
					"material":3
				}
			]
		},
		{
			"name":"Plane",
			"primitives":[
				{
					"attributes":{
						"POSITION":19,
						"NORMAL":20,
						"TEXCOORD_0":21,
						"TANGENT":22
					},
					"indices":23,
					"material":4
				}
			]
		}
	],
	"textures":[
		{
			"sampler":0,
			"source":0
		}
	],
	"images":[
		{
			"mimeType":"image/png",
			"name":"test.png",
			"uri":"textures/test_png.png"
		}
	],
	"accessors":[
		{
			"bufferView":0,
			"componentType":5126,
			"count":20,
			"max":[
				0.5,
				0.5,
				0.5
			],
			"min":[
				-0.5,
				-0.5,
				-0.5
			],
			"type":"VEC3"
		},
		{
			"bufferView":1,
			"componentType":5126,
			"count":20,
			"type":"VEC3"
		},
		{
			"bufferView":2,
			"componentType":5126,
			"count":20,
			"type":"VEC2"
		},
		{
			"bufferView":3,
			"componentType":5126,
			"count":20,
			"type":"VEC4"
		},
		{
			"bufferView":4,
			"componentType":5123,
			"count":30,
			"type":"SCALAR"
		},
		{
			"bufferView":5,
			"componentType":5126,
			"count":24,
			"max":[
				0.5,
				0.5,
				0.5
			],
			"min":[
				-0.5,
				-0.5,
				-0.5
			],
			"type":"VEC3"
		},
		{
			"bufferView":6,
			"componentType":5126,
			"count":24,
			"type":"VEC3"
		},
		{
			"bufferView":7,
			"componentType":5126,
			"count":24,
			"type":"VEC2"
		},
		{
			"bufferView":8,
			"componentType":5126,
			"count":24,
			"type":"VEC4"
		},
		{
			"bufferView":9,
			"componentType":5123,
			"count":36,
			"type":"SCALAR"
		},
		{
			"bufferView":10,
			"componentType":5126,
			"count":559,
			"max":[
				0.9999997019767761,
				1,
				1
			],
			"min":[
				-0.9999990463256836,
				-0.9999993443489075,
				-1
			],
			"type":"VEC3"
		},
		{
			"bufferView":11,
			"componentType":5126,
			"count":559,
			"type":"VEC3"
		},
		{
			"bufferView":12,
			"componentType":5126,
			"count":559,
			"type":"VEC2"
		},
		{
			"bufferView":13,
			"componentType":5126,
			"count":559,
			"type":"VEC4"
		},
		{
			"bufferView":14,
			"componentType":5123,
			"count":2880,
			"type":"SCALAR"
		},
		{
			"bufferView":15,
			"componentType":5126,
			"count":65,
			"max":[
				1,
				1,
				1
			],
			"min":[
				-1,
				-1,
				-1
			],
			"type":"VEC3"
		},
		{
			"bufferView":16,
			"componentType":5126,
			"count":65,
			"type":"VEC3"
		},
		{
			"bufferView":17,
			"componentType":5126,
			"count":65,
			"type":"VEC2"
		},
		{
			"bufferView":18,
			"componentType":5123,
			"count":186,
			"type":"SCALAR"
		},
		{
			"bufferView":19,
			"componentType":5126,
			"count":4,
			"max":[
				1,
				1,
				0
			],
			"min":[
				-1,
				-1,
				0
			],
			"type":"VEC3"
		},
		{
			"bufferView":20,
			"componentType":5126,
			"count":4,
			"type":"VEC3"
		},
		{
			"bufferView":21,
			"componentType":5126,
			"count":4,
			"type":"VEC2"
		},
		{
			"bufferView":22,
			"componentType":5126,
			"count":4,
			"type":"VEC4"
		},
		{
			"bufferView":23,
			"componentType":5123,
			"count":6,
			"type":"SCALAR"
		}
	],
	"bufferViews":[
		{
			"buffer":0,
			"byteLength":240,
			"byteOffset":0,
			"target":34962
		},
		{
			"buffer":0,
			"byteLength":240,
			"byteOffset":240,
			"target":34962
		},
		{
			"buffer":0,
			"byteLength":160,
			"byteOffset":480,
			"target":34962
		},
		{
			"buffer":0,
			"byteLength":320,
			"byteOffset":640,
			"target":34962
		},
		{
			"buffer":0,
			"byteLength":60,
			"byteOffset":960,
			"target":34963
		},
		{
			"buffer":0,
			"byteLength":288,
			"byteOffset":1020,
			"target":34962
		},
		{
			"buffer":0,
			"byteLength":288,
			"byteOffset":1308,
			"target":34962
		},
		{
			"buffer":0,
			"byteLength":192,
			"byteOffset":1596,
			"target":34962
		},
		{
			"buffer":0,
			"byteLength":384,
			"byteOffset":1788,
			"target":34962
		},
		{
			"buffer":0,
			"byteLength":72,
			"byteOffset":2172,
			"target":34963
		},
		{
			"buffer":0,
			"byteLength":6708,
			"byteOffset":2244,
			"target":34962
		},
		{
			"buffer":0,
			"byteLength":6708,
			"byteOffset":8952,
			"target":34962
		},
		{
			"buffer":0,
			"byteLength":4472,
			"byteOffset":15660,
			"target":34962
		},
		{
			"buffer":0,
			"byteLength":8944,
			"byteOffset":20132,
			"target":34962
		},
		{
			"buffer":0,
			"byteLength":5760,
			"byteOffset":29076,
			"target":34963
		},
		{
			"buffer":0,
			"byteLength":780,
			"byteOffset":34836,
			"target":34962
		},
		{
			"buffer":0,
			"byteLength":780,
			"byteOffset":35616,
			"target":34962
		},
		{
			"buffer":0,
			"byteLength":520,
			"byteOffset":36396,
			"target":34962
		},
		{
			"buffer":0,
			"byteLength":372,
			"byteOffset":36916,
			"target":34963
		},
		{
			"buffer":0,
			"byteLength":48,
			"byteOffset":37288,
			"target":34962
		},
		{
			"buffer":0,
			"byteLength":48,
			"byteOffset":37336,
			"target":34962
		},
		{
			"buffer":0,
			"byteLength":32,
			"byteOffset":37384,
			"target":34962
		},
		{
			"buffer":0,
			"byteLength":64,
			"byteOffset":37416,
			"target":34962
		},
		{
			"buffer":0,
			"byteLength":12,
			"byteOffset":37480,
			"target":34963
		}
	],
	"samplers":[
		{
			"magFilter":9729,
			"minFilter":9987
		}
	],
	"buffers":[
		{
			"byteLength":37492,
			"uri":"rgb.bin"
		}
	]
}
